<svg width="13" height="12" viewBox="0 0 13 12" fill="none" xmlns="http://www.w3.org/2000/svg">
<path d="M7.28279 1.76517C7.13634 1.61872 7.13634 1.38128 7.28279 1.23483C7.42924 1.08839 7.66667 1.08839 7.81312 1.23483L11.7795 5.20125L11.7801 5.20183C11.8853 5.3063 11.9688 5.43051 12.0258 5.56735C12.0829 5.70444 12.1123 5.85149 12.1123 6C12.1123 6.14851 12.0829 6.29556 12.0258 6.43265C11.9688 6.56949 11.8853 6.6937 11.7801 6.79817L11.7795 6.79875L7.81312 10.7652C7.66667 10.9116 7.42924 10.9116 7.28279 10.7652C7.13634 10.6187 7.13634 10.3813 7.28279 10.2348L11.1426 6.375H0.708218C0.501111 6.375 0.333218 6.20711 0.333218 6C0.333218 5.79289 0.501111 5.625 0.708218 5.625H11.1426L7.28279 1.76517Z" fill="#1A1A1A"/>
</svg>
