<?xml version="1.0" encoding="UTF-8"?><svg id="Ebene_1" xmlns="http://www.w3.org/2000/svg" viewBox="0 0 277.62 283.46"><defs><style>.cls-1{fill:#ff6900;}</style></defs><path class="cls-1" d="M262.63,111.15c-20.31-24.92-48.7-49.1-85.88-70.91l-.14-.07C139.12,18.87,103.98,6.37,72.25,1.24c-19.8-3.2-29.27,.52-33.57,3.01-4.31,2.48-12.27,8.82-19.39,27.57C7.87,61.86,1.12,98.54,.82,141.65v.16c.3,43.11,7.05,79.79,18.47,109.84,7.13,18.76,15.08,25.09,19.39,27.57,4.3,2.49,13.77,6.21,33.57,3.01,31.73-5.13,66.87-17.63,104.35-38.92l.14-.08c37.18-21.81,65.58-46,85.88-70.92,12.67-15.55,14.18-25.61,14.18-30.58s-1.51-15.02-14.18-30.58Z"/></svg>